<?xml version="1.0" encoding="UTF-8"?>
<svg id="Layer_2" data-name="Layer 2" xmlns="http://www.w3.org/2000/svg" viewBox="0 0 208.32 214.89">
  <defs>
    <style>
      .cls-1 {
        fill: #011d5a;
      }

      .cls-2 {
        fill: #eeefef;
      }
    </style>
  </defs>
  <g id="Layer_1-2" data-name="Layer 1">
    <g>
      <g>
        <path class="cls-1" d="M103.51,214.86c-25.28,0-50.57.08-75.85-.02-16.91-.07-27.56-10.83-27.59-28.09-.1-52.77-.1-105.55,0-158.32C.1,11.04,11.22.03,28.39.02c50.57-.03,101.13-.03,151.7,0,16.69,0,27.95,10.7,28.03,27.87.27,53.34.27,106.68-.01,160.02-.09,16.35-11.09,26.83-27.08,26.91-25.84.12-51.68.03-77.52.04Z"/>
        <path class="cls-2" d="M74.91,83.27c16.34-10.08,29.49-9.2,42.88,2.91,3.34,3.03,4.78,2.08,7.3-.36,11.46-11.07,24.92-11.98,38.69-6.2,13.86,5.83,19.53,17.78,19.73,32.62.16,12.2-.12,24.4.19,36.6.12,4.65-.99,6.28-5.88,6.29-13.75.04-13.75.3-13.75-13.63,0-7.94.11-15.89-.03-23.83-.24-13.48-6.78-21.24-17.62-21.17-10.82.07-16.58,7.05-16.78,20.74-.15,10.21-.28,20.44.07,30.64.18,5.3-.97,7.4-6.76,7.29-13.03-.27-13.03.09-13.04-13.38,0-7.94.1-15.89-.03-23.83-.22-13.33-6.86-21.4-17.49-21.47-11.11-.07-17.19,7.27-17.33,21.18-.1,10.21-.24,20.43.08,30.64.15,4.85-.63,6.91-6.18,6.86-15.05-.12-15.06.2-15.06-14.89,0-18.73.31-37.46-.16-56.17-.17-6.61,1.9-8.69,7.99-7.82,2.45.35,5.03.32,7.49,0,4.76-.62,6.7,1.35,5.71,6.98Z"/>
      </g>
      <path class="cls-2" d="M45.34,116.33c0,10.78-.33,21.57.14,32.33.24,5.52-1.68,6.49-6.6,6.46-14.33-.1-14.34.13-14.34-14.61,0-18.72.19-37.45-.12-56.17-.09-5.53.75-7.97,7.03-7.81,13.87.36,13.88-.02,13.88,14.26,0,8.51,0,17.02,0,25.53Z"/>
      <path class="cls-2" d="M33.86,66.63c-6.54,1.58-9.3-.13-9.73-8.66-.55-11,5.67-8.59,11.74-9.18,7.35-.71,9.33,1.59,9.71,9.42.51,10.4-5.19,8.92-11.72,8.41Z"/>
    </g>
  </g>
</svg>