<?xml version="1.0" encoding="UTF-8"?>
<svg id="Layer_2" data-name="Layer 2" xmlns="http://www.w3.org/2000/svg" viewBox="0 0 665 665">
  <defs>
    <style>
      .cls-1 {
        stroke: #000;
        stroke-miterlimit: 10;
      }
    </style>
  </defs>
  <g id="Layer_1-2" data-name="Layer 1">
    <g>
      <path class="cls-1" d="M200,664.5H.5v-332.5c0,36.73,29.77,66.5,66.5,66.5,18.36,0,34.99,7.44,47.02,19.48,12.04,12.03,19.48,28.66,19.48,47.02v132.5h.01c-.01.17-.01.33-.01.5,0,36.73,29.77,66.5,66.5,66.5Z"/>
      <path class="cls-1" d="M67,.5c-18.36,0-34.99,7.44-47.02,19.48C7.94,32.01.5,48.64.5,67V.5h66.5Z"/>
      <path class="cls-1" d="M664.5.5v199.3c0-18.36-7.44-34.99-19.48-47.02-11.24-11.25-26.5-18.48-43.43-19.38-1.19.07-2.39.1-3.59.1s-2.4-.03-3.59-.1c-35.06-1.86-62.91-30.88-62.91-66.4,0-18.36-7.44-34.99-19.48-47.02-12.03-12.04-28.66-19.48-47.02-19.48h199.5Z"/>
      <path class="cls-1" d="M664.5,598v66.5h-66.5c18.36,0,34.99-7.44,47.02-19.48,12.04-12.03,19.48-28.66,19.48-47.02Z"/>
    </g>
  </g>
</svg>