<?xml version="1.0" encoding="UTF-8"?>
<svg id="Layer_2" data-name="Layer 2" xmlns="http://www.w3.org/2000/svg" viewBox="0 0 665 665">
  <defs>
    <style>
      .cls-1 {
        stroke: #000;
        stroke-miterlimit: 10;
      }
    </style>
  </defs>
  <g id="Layer_1-2" data-name="Layer 1">
    <path class="cls-1" d="M645.02,152.78c-11.24-11.25-26.5-18.48-43.43-19.38-1.19.07-2.39.1-3.59.1s-2.4-.03-3.59-.1c-35.06-1.86-62.91-30.88-62.91-66.4,0-18.36-7.44-34.99-19.48-47.02-12.03-12.04-28.66-19.48-47.02-19.48H67c-18.36,0-34.99,7.44-47.02,19.48C7.94,32.01.5,48.64.5,67v265c0,36.73,29.77,66.5,66.5,66.5,18.36,0,34.99,7.44,47.02,19.48,12.04,12.03,19.48,28.66,19.48,47.02v132.5h.01c-.01.17-.01.33-.01.5,0,36.73,29.77,66.5,66.5,66.5h398c18.36,0,34.99-7.44,47.02-19.48,12.04-12.03,19.48-28.66,19.48-47.02V199.8c0-18.36-7.44-34.99-19.48-47.02ZM67,133.3c1.2,0,2.4.03,3.59.1-1.19.07-2.39.1-3.59.1s-2.4-.03-3.59-.1c1.19-.07,2.39-.1,3.59-.1ZM67,266.3c-2.48,0-4.92-.14-7.33-.4,2.41-.26,4.85-.4,7.33-.4s4.92.14,7.33.4c-2.41.26-4.85.4-7.33.4ZM465,133.3c1.2,0,2.4.03,3.59.1-1.19.07-2.39.1-3.59.1s-2.4-.03-3.59-.1c1.19-.07,2.39-.1,3.59-.1ZM332,133.3c1.2,0,2.4.03,3.59.1-1.19.07-2.39.1-3.59.1s-2.4-.03-3.59-.1c1.19-.07,2.39-.1,3.59-.1ZM200,133.3c1.2,0,2.4.03,3.59.1-1.19.07-2.39.1-3.59.1s-2.4-.03-3.59-.1c1.19-.07,2.39-.1,3.59-.1ZM200,265.5c2.48,0,4.92.14,7.33.4-2.41.26-4.85.4-7.33.4s-4.92-.14-7.33-.4c2.41-.26,4.85-.4,7.33-.4ZM266,606.21c-.33-2.69-.5-5.43-.5-8.21s.17-5.52.5-8.21c.33,2.69.5,5.43.5,8.21s-.17,5.52-.5,8.21ZM266,473.21c-.33-2.69-.5-5.43-.5-8.21s.17-5.52.5-8.21c.33,2.69.5,5.43.5,8.21s-.17,5.52-.5,8.21ZM266,340.21c-.33-2.69-.5-5.43-.5-8.21s.17-5.52.5-8.21c.33,2.69.5,5.43.5,8.21s-.17,5.52-.5,8.21ZM266,75.21c-.33-2.69-.5-5.43-.5-8.21s.17-5.52.5-8.21c.33,2.69.5,5.43.5,8.21s-.17,5.52-.5,8.21ZM332,266.3c-2.48,0-4.92-.14-7.33-.4,2.41-.26,4.85-.4,7.33-.4s4.92.14,7.33.4c-2.41.26-4.85.4-7.33.4ZM465,266.3c-2.48,0-4.92-.14-7.33-.4,2.41-.26,4.85-.4,7.33-.4s4.92.14,7.33.4c-2.41.26-4.85.4-7.33.4ZM598,266.3c-2.48,0-4.92-.14-7.33-.4,2.41-.26,4.85-.4,7.33-.4s4.92.14,7.33.4c-2.41.26-4.85.4-7.33.4Z"/>
  </g>
</svg>